<svg xmlns="http://www.w3.org/2000/svg" viewBox="0 0 500 500">
  <defs>
    <radialGradient id="sphere-gradient" cx="50%" cy="50%" r="50%" fx="25%" fy="25%">
      <stop offset="0%" stop-color="cyan" stop-opacity="0.3"/>
      <stop offset="100%" stop-color="cyan" stop-opacity="0"/>
    </radialGradient>
  </defs>
  <style>
    .wireframe { fill: none; stroke: cyan; stroke-width: 0.5; }
    .sphere-bg { fill: url(#sphere-gradient); }
    .currency { font-family: Arial, sans-serif; font-size: 20px; fill: cyan; opacity: 0; }
    
    @keyframes rotateY {
      0% { transform: rotateY(0deg); }
      100% { transform: rotateY(360deg); }
    }

    /* Apply animation to wireframes */
    .rotate-y {
      animation: rotateY 20s linear infinite;
    }
    
    /* Stagger delays */
    .wireframe:nth-child(1) { animation-delay: 0s; }
    .wireframe:nth-child(2) { animation-delay: 2.5s; }
    .wireframe:nth-child(3) { animation-delay: 5s; }
    .wireframe:nth-child(4) { animation-delay: 7.5s; }
    .wireframe:nth-child(5) { animation-delay: 10s; }
    .wireframe:nth-child(6) { animation-delay: 12.5s; }
    .wireframe:nth-child(7) { animation-delay: 15s; }
    .wireframe:nth-child(8) { animation-delay: 17.5s; }

    @keyframes blink {
      0%, 20%, 100% { opacity: 0; }
      40%, 80% { opacity: 1; }
    }
    
    /* Apply blinking effect to currency symbols */
    .currency {
      animation: blink 8s infinite;
    }
    #currency1 { animation-delay: 1s; }
    #currency2 { animation-delay: 3s; }
    #currency3 { animation-delay: 5s; }
    #currency4 { animation-delay: 2s; }
    #currency5 { animation-delay: 7s; }
  </style>
  
  <rect width="100%" height="100%" fill="black"/>
  
  <g transform="translate(250, 250)">
    <!-- Sphere background -->
    <circle class="sphere-bg" cx="0" cy="0" r="150"/>
    
    <circle class="wireframe" cx="0" cy="0" r="150"/>
    <ellipse class="wireframe" cx="0" cy="0" rx="150" ry="135"/>
    <ellipse class="wireframe" cx="0" cy="0" rx="150" ry="120"/>
    <ellipse class="wireframe" cx="0" cy="0" rx="150" ry="105"/>
    <ellipse class="wireframe" cx="0" cy="0" rx="150" ry="90"/>
    <ellipse class="wireframe" cx="0" cy="0" rx="150" ry="75"/>
    <ellipse class="wireframe" cx="0" cy="0" rx="150" ry="60"/>
    <ellipse class="wireframe" cx="0" cy="0" rx="150" ry="45"/>
    <ellipse class="wireframe" cx="0" cy="0" rx="150" ry="30"/>
    <ellipse class="wireframe" cx="0" cy="0" rx="150" ry="15"/>
    
    <!-- Rotating vertical (longitude) lines as full circles -->
    <g>
      <path class="wireframe rotate-y" d="M-150,0 A150,150 0 1,1 150,0 A150,150 0 1,1 -150,0 Z" transform="rotate(-90)"/>
      <path class="wireframe rotate-y" d="M-150,0 A150,150 0 1,1 150,0 A150,150 0 1,1 -150,0 Z" transform="rotate(90)" />
      <path class="wireframe rotate-y" d="M-150,0 A150,150 0 1,1 150,0 A150,150 0 1,1 -150,0 Z" transform="rotate(180)" />
      <path class="wireframe rotate-y" d="M-150,0 A150,150 0 1,1 150,0 A150,150 0 1,1 -150,0 Z" transform="rotate(0)" />
      <path class="wireframe rotate-y" d="M-150,0 A150,150 0 1,1 150,0 A150,150 0 1,1 -150,0 Z" transform="rotate(270)" />
      <path class="wireframe rotate-y" d="M-150,0 A150,150 0 1,1 150,0 A150,150 0 1,1 -150,0 Z" transform="rotate(90)" />
      <path class="wireframe rotate-y" d="M-150,0 A150,150 0 1,1 150,0 A150,150 0 1,1 -150,0 Z" transform="rotate(0)" />
      <path class="wireframe rotate-y" d="M-150,0 A150,150 0 1,1 150,0 A150,150 0 1,1 -150,0 Z" transform="rotate(180)" />
    </g>
  </g>
  
  <!-- Currency symbols -->
  <text id="currency1" class="currency" x="200" y="150">$</text>
  <text id="currency2" class="currency" x="300" y="200">€</text>
  <text id="currency3" class="currency" x="270" y="350">£</text>
  <text id="currency4" class="currency" x="180" y="280">¥</text>
  <text id="currency5" class="currency" x="350" y="300">₹</text>
</svg>
