<svg xmlns="http://www.w3.org/2000/svg" version="1.1" xmlns:xlink="http://www.w3.org/1999/xlink" xmlns:svgjs="http://svgjs.com/svgjs" width="1440" height="560" preserveAspectRatio="none" viewBox="0 0 1440 560"><g mask="url(&quot;#SvgjsMask1011&quot;)" fill="none"><path d="M545.96 361.68L567.82 361.68L567.82 383.54L545.96 383.54z" stroke="#d3b714"></path><path d="M1301.39 207.92 a27.87 27.87 0 1 0 55.74 0 a27.87 27.87 0 1 0 -55.74 0z" fill="#e73635"></path><path d="M1423.82 363.06L1470.8 363.06L1470.8 410.04L1423.82 410.04z" fill="#d3b714"></path><path d="M1384.98 495.35 a40.15 40.15 0 1 0 80.3 0 a40.15 40.15 0 1 0 -80.3 0z" stroke="#e73635"></path><path d="M944.69 349.56 a12.29 12.29 0 1 0 24.58 0 a12.29 12.29 0 1 0 -24.58 0z" stroke="#e73635"></path><path d="M1305.67 283.17 a1.92 1.92 0 1 0 3.84 0 a1.92 1.92 0 1 0 -3.84 0z" fill="#e73635"></path><path d="M511.11 182.07L557.58 182.07L557.58 228.54L511.11 228.54z" fill="#037b0b"></path><path d="M1279.92 445.63 a35.97 35.97 0 1 0 71.94 0 a35.97 35.97 0 1 0 -71.94 0z" fill="#e73635"></path><path d="M38.92 55.62 a36.74 36.74 0 1 0 73.48 0 a36.74 36.74 0 1 0 -73.48 0z" fill="#e73635"></path><path d="M606.02 66.92L650.34 66.92L650.34 110.3L606.02 110.3z" fill="#037b0b"></path><path d="M-2.15 276.09 a17.47 17.47 0 1 0 34.94 0 a17.47 17.47 0 1 0 -34.94 0z" stroke="#d3b714"></path><path d="M1203.05 108.72a40.71 40.71 0 1 0-59.21 55.89z" fill="#d3b714"></path><path d="M64.49 58.06a41.59 41.59 0 1 0 22.32-80.13z" stroke="#037b0b"></path><path d="M1383.06 284.86L1395.14 284.86L1395.14 319.74L1383.06 319.74z" stroke="#e73635"></path><path d="M315.94 365.34L340.95 365.34L340.95 390.35L315.94 390.35z" fill="#d3b714"></path><path d="M1173.1 475.85 a43.83 43.83 0 1 0 87.66 0 a43.83 43.83 0 1 0 -87.66 0z" fill="#037b0b"></path><path d="M674.53 178.8 a48.61 48.61 0 1 0 97.22 0 a48.61 48.61 0 1 0 -97.22 0z" stroke="#037b0b"></path><path d="M851.07 335.63 a54.51 54.51 0 1 0 109.02 0 a54.51 54.51 0 1 0 -109.02 0z" stroke="#d3b714"></path><path d="M1415.68 271.7L1442.76 271.7L1442.76 305.06L1415.68 305.06z" stroke="#e73635"></path><path d="M956.44 274.82L997.02 274.82L997.02 316.31L956.44 316.31z" stroke="#d3b714"></path><path d="M399.11 42.68L403.64 42.68L403.64 47.21L399.11 47.21z" fill="#037b0b"></path><path d="M531.29 188.31L560.58 188.31L560.58 217.6L531.29 217.6z" fill="#e73635"></path><path d="M1083.62 219.24 a26.44 26.44 0 1 0 52.88 0 a26.44 26.44 0 1 0 -52.88 0z" fill="#d3b714"></path><path d="M111.89 534.44L128.59 534.44L128.59 556.22L111.89 556.22z" fill="#037b0b"></path><path d="M878.41 48.41L918.53 48.41L918.53 88.53L878.41 88.53z" fill="#037b0b"></path><path d="M290.51 209.4 a42.73 42.73 0 1 0 85.46 0 a42.73 42.73 0 1 0 -85.46 0z" fill="#e73635"></path><path d="M297.64 397.28L298.26 397.28L298.26 397.9L297.64 397.9z" fill="#037b0b"></path><path d="M815.12 50.42a35.7 35.7 0 1 0-14.66-69.88z" fill="#e73635"></path><path d="M333.51 431.28a32.01 32.01 0 1 0-54.24-34.01z" fill="#d3b714"></path><path d="M1051.95 24.24L1065.01 24.24L1065.01 37.3L1051.95 37.3z" stroke="#d3b714"></path><path d="M113.74 89.67a31.5 31.5 0 1 0-52.99-34.06z" stroke="#d3b714"></path><path d="M758.81 107.42L775.91 107.42L775.91 124.52L758.81 124.52z" fill="#037b0b"></path><path d="M1018.17 51.72 a52.75 52.75 0 1 0 105.5 0 a52.75 52.75 0 1 0 -105.5 0z" fill="#037b0b"></path></g><defs><mask id="SvgjsMask1011"><rect width="1440" height="560" fill="#ffffff"></rect></mask></defs></svg>