<svg viewBox="0 0 1104 1104" width="1104" height="1104" x="0" y="0" xmlns="http://www.w3.org/2000/svg"><defs><pattern id="pattern" x="0" y="0" width="8" height="8" patternUnits="userSpaceOnUse"><polygon points="0,4 0,8 8,0 4,0" fill="#ffffff"></polygon><polygon points="4,8 8,8 8,4" fill="#ffffff"></polygon></pattern><mask id="grating" x="0" y="0" width="1" height="1"><rect x="0" y="0" width="100%" height="100%" fill="url(#pattern)"></rect></mask></defs><g id="horizStripes"><rect fill="#EFF265" height="24" width="100%" x="0" y="0"></rect><rect fill="#ABCDD9" height="320" width="100%" x="0" y="24"></rect><rect fill="#00006B" height="40" width="100%" x="0" y="344"></rect><rect fill="#ABCDD9" height="40" width="100%" x="0" y="384"></rect><rect fill="#00006B" height="120" width="100%" x="0" y="424"></rect><rect fill="#EFF265" height="40" width="100%" x="0" y="544"></rect><rect fill="#00006B" height="120" width="100%" x="0" y="584"></rect><rect fill="#ABCDD9" height="40" width="100%" x="0" y="704"></rect><rect fill="#00006B" height="40" width="100%" x="0" y="744"></rect><rect fill="#ABCDD9" height="320" width="100%" x="0" y="784"></rect></g><g id="vertStripes" mask="url(#grating)"><rect fill="#EFF265" height="100%" width="24" x="0" y="0"></rect><rect fill="#ABCDD9" height="100%" width="320" x="24" y="0"></rect><rect fill="#00006B" height="100%" width="40" x="344" y="0"></rect><rect fill="#ABCDD9" height="100%" width="40" x="384" y="0"></rect><rect fill="#00006B" height="100%" width="120" x="424" y="0"></rect><rect fill="#EFF265" height="100%" width="40" x="544" y="0"></rect><rect fill="#00006B" height="100%" width="120" x="584" y="0"></rect><rect fill="#ABCDD9" height="100%" width="40" x="704" y="0"></rect><rect fill="#00006B" height="100%" width="40" x="744" y="0"></rect><rect fill="#ABCDD9" height="100%" width="320" x="784" y="0"></rect></g></svg>